<svg xmlns="http://www.w3.org/2000/svg" viewBox="0 0 1108.03 322.69"><defs><style>.cls-1,.cls-9{font-size:80px;font-family:PlayfairDisplay-Black, Playfair Display;font-weight:800;}.cls-1{fill:#fff;}.cls-2{letter-spacing:-0.04em;}.cls-3{letter-spacing:-0.01em;}.cls-4{letter-spacing:-0.02em;}.cls-5{letter-spacing:-0.02em;}.cls-6{letter-spacing:-0.01em;}.cls-7{opacity:0.6;}.cls-8{opacity:0.4;}.cls-9{fill:none;stroke:#fff;stroke-miterlimit:10;stroke-width:2px;}</style></defs><g id="Layer_2" data-name="Layer 2"><g id="Layer_1-2" data-name="Layer 1"><text class="cls-1" transform="translate(0 68.32)">LET’S<tspan class="cls-2" x="227.68" y="0"> </tspan><tspan x="242.32" y="0">W</tspan><tspan class="cls-3" x="323.12" y="0">O</tspan><tspan x="388.64" y="0">R</tspan><tspan class="cls-4" x="446.32" y="0">K</tspan><tspan class="cls-5" x="505.36" y="0"> </tspan><tspan x="521.36" y="0">TOGETHE</tspan><tspan class="cls-6" x="930.15" y="0">R</tspan></text><g class="cls-7"><text class="cls-1" transform="translate(36.91 146.27)">LET’S<tspan class="cls-2" x="227.68" y="0"> </tspan><tspan x="242.32" y="0">W</tspan><tspan class="cls-3" x="323.12" y="0">O</tspan><tspan x="388.64" y="0">R</tspan><tspan class="cls-4" x="446.32" y="0">K</tspan><tspan class="cls-5" x="505.36" y="0"> </tspan><tspan x="521.36" y="0">TOGETHE</tspan><tspan class="cls-6" x="930.15" y="0">R</tspan></text></g><g class="cls-8"><text class="cls-1" transform="translate(76.56 224.22)">LET’S<tspan class="cls-2" x="227.68" y="0"> </tspan><tspan x="242.32" y="0">W</tspan><tspan class="cls-3" x="323.12" y="0">O</tspan><tspan x="388.64" y="0">R</tspan><tspan class="cls-4" x="446.32" y="0">K</tspan><tspan class="cls-5" x="505.36" y="0"> </tspan><tspan x="521.36" y="0">TOGETHE</tspan><tspan class="cls-6" x="930.15" y="0">R</tspan></text></g><text class="cls-9" transform="translate(116.2 302.17)">LET’S<tspan class="cls-2" x="227.68" y="0"> </tspan><tspan x="242.32" y="0">W</tspan><tspan class="cls-3" x="323.12" y="0">O</tspan><tspan x="388.64" y="0">R</tspan><tspan class="cls-4" x="446.32" y="0">K</tspan><tspan class="cls-5" x="505.36" y="0"> </tspan><tspan x="521.36" y="0">TOGETHE</tspan><tspan class="cls-6" x="930.15" y="0">R</tspan></text></g></g></svg>